<svg width="22" height="22" viewBox="0 0 22 22" fill="none" xmlns="http://www.w3.org/2000/svg">
<g clip-path="url(#clip0_112_7)">
<path d="M10.7304 6.07288C10.3273 6.07288 9.93864 6.13408 9.57264 6.24728C10.254 6.55354 10.7304 7.23501 10.7304 8.03047C10.7304 9.11154 9.85397 9.98794 8.7729 9.98794C7.97744 9.98794 7.29597 9.51154 6.98971 8.8302C6.87664 9.19607 6.81531 9.58487 6.81531 9.98794C6.81531 12.1501 8.5681 13.9029 10.7302 13.9029C12.8924 13.9029 14.6452 12.1501 14.6452 9.98794C14.6452 7.82581 12.8925 6.07288 10.7304 6.07288Z" fill="#F15E4A"/>
<path d="M21.6554 10.9411L21.6546 10.9201C21.5864 4.14715 13.5899 -0.826173 7.15099 1.55716C2.7134 3.10049 -0.210731 7.80155 0.418468 12.4894C0.808068 15.829 2.84246 18.6733 5.84486 20.1377C6.60246 20.5074 7.44006 20.801 8.28059 20.9693C9.87552 21.2513 11.7459 20.7542 13.0996 19.8455C14.0994 19.1529 15.2078 18.4585 16.1751 17.7155C16.7616 17.2541 17.4602 16.8301 18.2347 16.9163C18.6442 16.9454 19.0672 17.131 19.4282 17.3805C19.8419 17.6579 20.2172 18.0283 20.6128 18.119C21.5199 18.3274 21.641 17.1997 21.6274 16.5341C21.6567 14.2342 21.682 12.3178 21.6554 10.9411ZM9.67752 16.9261C5.89446 16.9261 2.82766 13.8593 2.82766 10.0762C2.82766 6.29315 5.89446 3.22635 9.67752 3.22635C13.4606 3.22635 16.5274 6.29315 16.5274 10.0762C16.5274 13.8593 13.4606 16.9261 9.67752 16.9261Z" fill="#F15E4A"/>
<path d="M9.67754 3.22638C5.89448 3.22638 2.82782 6.29317 2.82782 10.0761C2.82782 13.859 5.89462 16.926 9.67768 16.926C13.4607 16.926 16.5275 13.8592 16.5275 10.0761C16.5275 6.29304 13.4607 3.22638 9.67754 3.22638ZM10.7303 13.9026C8.56821 13.9026 6.81541 12.1498 6.81541 9.9877C6.81541 9.58464 6.87661 9.19584 6.98981 8.82997C7.29608 9.5113 7.97741 9.9877 8.77301 9.9877C9.85408 9.9877 10.7305 9.1113 10.7305 8.03024C10.7305 7.23477 10.2541 6.55331 9.57274 6.24704C9.93861 6.13397 10.3274 6.07264 10.7305 6.07264C12.8926 6.07264 14.6454 7.82544 14.6454 9.98757C14.6454 12.1497 12.8925 13.9026 10.7303 13.9026Z" fill="#EFEEED"/>
</g>
<defs>
<clipPath id="clip0_112_7">
<rect width="21.3332" height="20.0961" fill="white" transform="translate(0.333435 0.951965)"/>
</clipPath>
</defs>
</svg>